<svg width="68" height="19" viewBox="0 0 68 19" fill="none" xmlns="http://www.w3.org/2000/svg">
<path fill-rule="evenodd" clip-rule="evenodd" d="M6.28461 14.0268C5.01131 13.2995 4.69375 12.4265 4.47284 11.7964V11.7957L0.67749 14.1479C1.36323 15.2393 1.97533 16.2089 3.81165 17.0819C5.32963 17.8093 6.99489 18.1005 8.66015 18.1005C13.8024 18.1005 16.2263 15.1665 16.2263 12.3299C16.2263 8.86248 13.2632 7.86839 9.68877 6.68039L9.68597 6.67945C8.60907 6.31567 7.46049 5.92768 7.46049 4.95895C7.46049 4.61941 7.82791 3.3586 9.90891 3.3586C10.8639 3.3586 12.2108 3.60081 13.0676 4.40098C13.557 4.86162 13.7043 5.27396 13.8753 5.75912L17.4505 3.69814C16.471 2.2917 15.516 0.934309 12.6266 0.328051C11.8917 0.18243 11.1569 0.109619 10.3983 0.109619C6.43188 0.109619 4.91389 1.63715 4.20361 2.55843C3.56619 3.40689 3.12591 4.44927 3.12591 5.54069C3.12591 8.4738 5.80222 9.53116 6.82231 9.93418L6.87217 9.95389C7.32936 10.1223 7.79103 10.2769 8.2533 10.4317C8.85587 10.6336 9.45945 10.8357 10.0554 11.0691C11.1331 11.5052 11.7452 11.9658 11.7452 12.7177C11.7452 13.7118 10.6921 14.6814 8.78211 14.6814C7.94987 14.6814 7.06853 14.512 6.28461 14.0268ZM28.1501 7.38328L35.7163 0.545782H30.574L23.0324 7.57719L24.624 0.545782H20.5349L16.6413 17.6637H20.755L21.7836 13.0566L25.0888 10.0743L28.6149 17.6637H33.1451L28.1501 7.38328ZM37.7667 0.545782H45.382C46.1168 0.545782 46.8516 0.5703 47.5857 0.764214C49.2264 1.17656 51.0873 2.5347 51.0873 5.51695C51.0873 6.70495 50.769 7.91747 50.0587 8.86327C49.2264 10.0267 48.1487 10.4153 46.7289 10.8997L49.5448 17.6644H44.8435L42.5661 11.5543H39.5294L38.1334 17.6644H33.8487L37.7667 0.545782ZM43.6676 8.37737H40.289L41.3665 3.69818H44.2797C45.2102 3.69818 46.8263 3.81928 46.8263 5.63806C46.8263 6.60763 46.3124 7.5289 45.6758 7.94125C45.1373 8.30456 44.256 8.37737 43.6676 8.37737ZM56.2119 0.545782H51.9302V0.546525C52.0204 0.791741 52.0792 0.938542 52.1424 1.09624L52.1626 1.14684C52.5594 2.13844 52.9567 3.12992 53.3539 4.12143C53.9681 5.65427 54.5823 7.18717 55.1948 8.72062C55.4487 9.35511 55.3252 9.72139 54.7361 10.0854C54.633 10.1492 54.2772 10.3308 53.8443 10.5517C53.1722 10.8947 52.3144 11.3325 51.9294 11.5706C51.3871 11.9064 51.4217 12.2542 52.0023 12.506C52.3576 12.66 52.7316 12.7733 53.1055 12.8867C53.2766 12.9386 53.4477 12.9904 53.6169 13.0462C54.641 13.3835 54.8082 13.671 54.5842 14.6688C54.4024 15.4784 54.225 16.29 54.0375 17.1473C54.0003 17.3175 53.9627 17.4895 53.9245 17.6637H58.2016C58.2016 17.6637 58.8344 14.9273 59.0952 13.7609C59.29 12.8872 59.1297 12.5699 58.2407 12.3545C57.7039 12.2246 56.468 12.0705 55.5765 11.9593C55.1063 11.9007 54.732 11.8541 54.6064 11.8292C54.4607 11.8032 54.407 11.6219 54.6356 11.5127C54.6896 11.4887 54.8773 11.4071 55.1555 11.2863C56.2802 10.7977 58.8846 9.66642 60.12 9.09284C61.0573 8.65746 61.5873 8.29341 62.504 7.22131C63.6787 5.778 64.8643 4.34321 66.0499 2.90859C66.5798 2.26732 67.1097 1.62608 67.6386 0.984131C67.6711 0.944718 67.7028 0.907837 67.7358 0.869312C67.8087 0.784378 67.8885 0.691452 67.9999 0.545782H63.1015C63.1015 0.545782 60.2634 4.42183 58.9686 6.17894C58.9001 6.27134 58.8276 6.36082 58.7435 6.46459C58.7005 6.51767 58.6544 6.57449 58.6043 6.63734C58.5734 6.56129 58.5457 6.49405 58.5203 6.43235C58.4758 6.32407 58.4382 6.23286 58.4026 6.14105C57.726 4.40845 56.2119 0.545782 56.2119 0.545782Z" fill="black"/>
</svg>
