<svg width="189" height="26" viewBox="0 0 189 26" fill="none" xmlns="http://www.w3.org/2000/svg">
<g clip-path="url(#clip0_1895_10139)">
<path d="M26.0236 0H2.53297C1.86142 0.000761556 1.21758 0.269894 0.742724 0.748352C0.267864 1.22681 0.000755829 1.87552 0 2.55216V22.7402C0.000755829 23.4169 0.267864 24.0656 0.742724 24.5441C1.21758 25.0225 1.86142 25.2916 2.53297 25.2924H19.6888C20.5391 25.2941 21.3553 24.9557 21.9581 24.3515L27.6018 18.7197C28.2099 18.1078 28.5522 17.278 28.5537 16.4121V2.55216C28.553 1.87602 28.2863 1.22774 27.812 0.749367C27.3378 0.270991 26.6947 0.00152242 26.0236 0ZM27.6352 16.4073C27.634 17.0258 27.3896 17.6187 26.9555 18.056L21.3118 23.6917C20.8817 24.1223 20.2999 24.3637 19.6936 24.363H2.53297C2.10627 24.3613 1.69752 24.1898 1.39571 23.8858C1.09389 23.5819 0.92343 23.1702 0.921426 22.7402V2.55216C0.92318 2.12206 1.09353 1.71008 1.39537 1.40595C1.69722 1.10182 2.1061 0.930176 2.53297 0.928408H26.0236C26.4505 0.930176 26.8594 1.10182 27.1612 1.40595C27.4631 1.71008 27.6334 2.12206 27.6352 2.55216V16.4073ZM11.3446 4.62094V6.75877C11.3446 6.93683 11.2744 7.1076 11.1494 7.2335C11.0245 7.35941 10.855 7.43014 10.6783 7.43014H5.10306C4.92634 7.43014 4.75686 7.35941 4.6319 7.2335C4.50694 7.1076 4.43674 6.93683 4.43674 6.75877V4.62094C4.43674 4.44288 4.50694 4.27212 4.6319 4.14621C4.75686 4.0203 4.92634 3.94957 5.10306 3.94957H10.6783C10.855 3.94957 11.0245 4.0203 11.1494 4.14621C11.2744 4.27212 11.3446 4.44288 11.3446 4.62094ZM18.1582 18.5432V20.6763C18.1582 20.8543 18.088 21.0251 17.963 21.151C17.8381 21.2769 17.6686 21.3476 17.4919 21.3476H15.4663C15.2895 21.3476 15.12 21.2769 14.9951 21.151C14.8701 21.0251 14.7999 20.8543 14.7999 20.6763V18.5384C14.7999 18.3604 14.8701 18.1896 14.9951 18.0637C15.12 17.9378 15.2895 17.8671 15.4663 17.8671H17.4928C17.6695 17.8671 17.839 17.9378 17.964 18.0637C18.0889 18.1896 18.1591 18.3604 18.1591 18.5384L18.1582 18.5432ZM11.3446 11.5773V13.7151C11.3446 13.8932 11.2744 14.0639 11.1494 14.1898C11.0245 14.3158 10.855 14.3865 10.6783 14.3865H8.27189C8.17091 14.3865 8.07406 14.4269 8.00266 14.4989C7.93125 14.5708 7.89114 14.6684 7.89114 14.7701V20.6763C7.89114 20.8543 7.82094 21.0251 7.69598 21.151C7.57102 21.2769 7.40154 21.3476 7.22482 21.3476H5.10306C4.92634 21.3476 4.75686 21.2769 4.6319 21.151C4.50694 21.0251 4.43674 20.8543 4.43674 20.6763V11.5773C4.43674 11.3992 4.50694 11.2285 4.6319 11.1026C4.75686 10.9767 4.92634 10.9059 5.10306 10.9059H10.6783C10.855 10.9059 11.0245 10.9767 11.1494 11.1026C11.2744 11.2285 11.3446 11.3992 11.3446 11.5773ZM25.1622 8.09672V10.2345C25.1622 10.4126 25.092 10.5834 24.967 10.7093C24.842 10.8352 24.6726 10.9059 24.4958 10.9059H22.2799C22.1031 10.9059 21.9337 10.9767 21.8087 11.1026C21.6837 11.2285 21.6135 11.3992 21.6135 11.5773V13.7151C21.6135 13.8932 21.5433 14.0639 21.4184 14.1898C21.2934 14.3158 21.1239 14.3865 20.9472 14.3865H15.4663C15.2895 14.3865 15.12 14.3158 14.9951 14.1898C14.8701 14.0639 14.7999 13.8932 14.7999 13.7151V11.5773C14.7999 11.3992 14.8701 11.2285 14.9951 11.1026C15.12 10.9767 15.2895 10.9059 15.4663 10.9059H21.2328C21.3338 10.9059 21.4306 10.8655 21.502 10.7936C21.5734 10.7216 21.6135 10.624 21.6135 10.5223V7.7735C21.6137 7.72774 21.6048 7.68242 21.5875 7.64012C21.5702 7.59782 21.5447 7.55939 21.5126 7.52704C21.4805 7.49468 21.4424 7.46904 21.4004 7.45159C21.3584 7.43414 21.3134 7.42522 21.268 7.42535H15.4663C15.2895 7.42535 15.12 7.35461 14.9951 7.22871C14.8701 7.1028 14.7999 6.93204 14.7999 6.75398V4.62094C14.7999 4.44288 14.8701 4.27212 14.9951 4.14621C15.12 4.0203 15.2895 3.94957 15.4663 3.94957H20.9472C21.1239 3.94957 21.2934 4.0203 21.4184 4.14621C21.5433 4.27212 21.6135 4.44288 21.6135 4.62094V6.75877C21.6135 6.93683 21.6837 7.1076 21.8087 7.2335C21.9337 7.35941 22.1031 7.43014 22.2799 7.43014H24.4968C24.6727 7.43014 24.8415 7.50021 24.9663 7.62508C25.0911 7.74995 25.1619 7.91949 25.1631 8.09672H25.1622ZM35.7034 5.74213H46.4882V8.37773H38.7208V11.3577H45.3003V13.8513H38.7208V19.6289H35.7034V5.74213ZM57.5739 5.74213H60.5723V14.4594C60.5723 17.7846 58.3183 19.8524 54.3146 19.8524C50.5918 19.8524 48.0969 17.9869 48.0969 14.4594V5.74213H51.0954V14.2359C51.0954 16.0409 52.1424 17.1132 54.3318 17.1132C56.2831 17.1132 57.5682 16.2615 57.5682 14.2359L57.5739 5.74213ZM73.6294 5.74213H76.6078V19.6289H72.5832L66.3455 9.65429H66.2046V19.6289H63.2271V5.74213H67.2517L73.4885 15.7168H73.6294V5.74213ZM85.2586 11.9254H92.7242V19.6289H90.2084V17.8651H89.8866C89.2203 19.0611 87.5726 19.8323 85.7621 19.8323C81.5167 19.8323 78.74 17.0135 78.74 12.7973C78.74 8.49858 81.6166 5.43809 86.1438 5.43809C89.5849 5.43809 92.1407 6.95827 92.7033 10.1617H89.424C88.9814 9.04623 87.9553 8.29621 86.0639 8.29621C83.6289 8.29621 81.9593 10.0399 81.9593 12.6553C81.9593 15.453 83.6289 17.0135 86.1238 17.0135C87.9553 17.0135 89.444 16.0611 89.8666 14.6416V14.3779H85.2586V11.9254ZM102.964 5.74213H106.405L101.012 14.257V19.628H97.9948V14.257L92.6024 5.74213H96.1034L99.4436 11.4181H99.5844L102.964 5.74213ZM115.861 5.74213H108.678L106.505 19.6289H109.502L110.347 14.398H115.012C117.909 14.398 119.882 12.4318 119.882 9.63415C119.886 7.24216 118.357 5.74213 115.862 5.74213H115.861ZM114.553 11.9657H110.71L111.294 8.31635H115.015C116.083 8.31635 116.746 8.92442 116.746 9.91805C116.747 11.1754 115.922 11.9657 114.554 11.9657H114.553ZM129.582 5.74213H122.339L120.166 19.6289H123.185L124.009 14.398H126.786L129.26 19.6289H132.601L129.985 14.0537C132.319 13.7295 133.869 12.1077 133.869 9.63415C133.869 7.30642 132.501 5.74213 129.583 5.74213H129.582ZM128.236 12.006H124.393L124.957 8.45734H128.84C129.887 8.45734 130.57 8.9647 130.57 10.059C130.569 11.2157 129.704 12.006 128.236 12.006ZM142.642 5.43809C138.035 5.43809 134.655 8.76233 134.655 13.3439C134.655 17.3386 137.371 19.933 141.435 19.933C146.063 19.933 149.443 16.6078 149.443 12.0261C149.442 8.0526 146.727 5.43809 142.641 5.43809H142.642ZM141.658 17.0135C139.424 17.0135 137.935 15.4731 137.935 13.1416C137.935 10.4043 139.887 8.35663 142.462 8.35663C144.635 8.35663 146.124 9.87776 146.124 12.2295C146.122 14.9658 144.211 17.0135 141.658 17.0135ZM158.738 5.43809C154.13 5.43809 150.749 8.76233 150.749 13.3439C150.749 17.3386 153.466 19.933 157.531 19.933C162.159 19.933 165.539 16.6078 165.539 12.0261C165.539 8.0526 162.822 5.43809 158.738 5.43809ZM157.751 17.0135C155.518 17.0135 154.029 15.4731 154.029 13.1416C154.029 10.4043 155.981 8.35663 158.557 8.35663C160.73 8.35663 162.219 9.87776 162.219 12.2295C162.219 14.9658 160.307 17.0135 157.751 17.0135ZM168.636 5.74213H179.421L179.018 8.37773H171.252L170.786 11.3577H177.365L176.962 13.8513H170.383L169.478 19.6289H166.459L168.636 5.74213ZM188.76 5.75268L188.205 9.25435H187.149L187.32 8.19934L187.619 6.71657H187.565L186.372 9.25147H185.657L185.263 6.71657H185.22L185.039 8.19934L184.868 9.25435H183.834L184.388 5.75268H185.966L186.233 7.71883H186.286L187.17 5.75268H188.76ZM183.942 5.75268L183.803 6.65519H182.565L182.149 9.25435H181.083L181.499 6.65519H180.252L180.39 5.75268H183.942Z" fill="black"/>
</g>
<defs>
<clipPath id="clip0_1895_10139">
<rect width="188.76" height="26" fill="white"/>
</clipPath>
</defs>
</svg>
